PathFileType	4	(X/Y/Z)	traj.trc
DataRate	CameraRate	NumFrames	NumMarkers	Units	OrigDataRate	OrigDataStartFrame	OrigNumFrames
30.00	30.00	100	1	mm	30.00	1	100
Frame#	Time	wrist		
		X1	Y1	Z1

0	0.0	100.0	800.0	200.0
1	0.10101010101010101	100.0	800.0	200.0
2	0.20202020202020202	100.00149969392442	799.9940012243025	200.0
3	0.30303030303030304	100.00887636416479	799.964494543341	200.0
4	0.40404040404040403	100.02770529933807	799.8891788026477	200.0
5	0.5050505050505051	100.0632057590995	799.7471769636021	200.0
6	0.6060606060606061	100.12024846948927	799.5190061220429	200.0
7	0.7070707070707071	100.20336311827904	799.1865475268839	200.0
8	0.8080808080808081	100.3167458503185	798.7330165987261	200.0
9	0.9090909090909091	100.46426676288193	798.1429329484723	200.0
10	1.0101010101010102	100.64947740101482	797.4020903959408	200.0
11	1.1111111111111112	100.87561825288032	796.4975269884787	200.0
12	1.2121212121212122	101.1456262451059	795.4174950195764	200.0
13	1.3131313131313131	101.46214223812986	794.1514310474806	200.0
14	1.4141414141414141	101.82751852154789	792.6899259138085	200.0
15	1.5151515151515151	102.24382630945969	791.0246947621613	200.0
16	1.6161616161616161	102.71286323581545	789.1485470567383	200.0
17	1.7171717171717171	103.23616084976243	787.0553566009503	200.0
18	1.8181818181818181	103.8149921109916	784.7400315560336	200.0
19	1.9191919191919191	104.45037888508408	782.1984844596637	200.0
20	2.0202020202020203	105.14309943885776	779.427602244569	200.0
21	2.121212121212121	105.89369593571392	776.4252162571445	200.0
22	2.2222222222222223	106.70248193098367	773.1900722760654	200.0
23	2.323232323232323	107.5695498672746	769.7218005309016	200.0
24	2.4242424242424243	108.4947785698173	766.0208857207309	200.0
25	2.525252525252525	109.47784074181195	762.0886370327522	200.0
26	2.6262626262626263	110.51821045977488	757.9271581609006	200.0
27	2.727272727272727	111.61517066888504	753.53931732446	200.0
28	2.8282828282828283	112.76782067833075	748.928717286677	200.0
29	2.929292929292929	113.97508365665604	744.099665373376	200.0
30	3.0303030303030303	115.2357141271074	739.0571434915705	200.0
31	3.131313131313131	116.54830546298022	733.8067781480792	200.0
32	3.2323232323232323	117.91129738296539	728.3548104681385	200.0
33	3.3333333333333335	119.32298344649588	722.7080662140165	200.0
34	3.4343434343434343	120.78151854909329	716.8739258036269	200.0
35	3.5353535353535355	122.28492641771435	710.8602943291427	200.0
36	3.6363636363636362	123.8311071060976	704.6755715756096	200.0
37	3.7373737373737375	125.41784449010984	698.3286220395607	200.0
38	3.8383838383838382	127.0428137630928	691.828744947629	200.0
39	3.9393939393939394	128.70358893120948	685.1856442751621	200.0
40	4.040404040404041	130.3976503087911	678.4093987648356	200.0
41	4.141414141414141	132.12239201368325	671.5104319452671	200.0
42	4.242424242424242	133.87512946259272	664.4994821496292	200.0
43	4.343434343434343	135.6531068664339	657.3875725342645	200.0
44	4.444444444444445	137.45350472567546	650.1859810972982	200.0
45	4.545454545454545	139.2734473256869	642.9062106972525	200.0
46	4.646464646464646	141.11001023208496	635.5599590716602	200.0
47	4.747474747474747	142.96022778608045	628.1590888556783	200.0
48	4.848484848484849	144.8211005998245	620.7155976007022	200.0
49	4.94949494949495	146.6896030517553	613.2415877929786	200.0
50	5.05050505050505	148.56269078194484	605.7492368722208	200.0
51	5.151515151515151	150.43730818744498	598.2507672502201	200.0
52	5.252525252525253	152.3103959176345	590.758416329462	200.0
53	5.353535353535354	154.1788983695654	583.2844065217387	200.0
54	5.454545454545454	156.03977118330943	575.8409152667624	200.0
55	5.555555555555555	157.88998873730486	568.4400450507804	200.0
56	5.656565656565657	159.72655164370298	561.0937934251883	200.0
57	5.757575757575758	161.54649424371436	553.8140230251424	200.0
58	5.858585858585858	163.34689210295593	546.6124315881762	200.0
59	5.959595959595959	165.12486950679713	539.5005219728115	200.0
60	6.0606060606060606	166.87760695570657	532.4895721771736	200.0
61	6.161616161616162	168.60234866059875	525.5906053576051	200.0
62	6.262626262626262	170.29641003818037	518.8143598472786	200.0
63	6.363636363636363	171.95718520629708	512.1712591748118	200.0
64	6.4646464646464645	173.58215447928	505.67138208288	200.0
65	6.565656565656566	175.16889186329226	499.324432546831	200.0
66	6.666666666666667	176.71507255167552	493.13970979329804	200.0
67	6.767676767676767	178.2184804202966	487.12607831881377	200.0
68	6.8686868686868685	179.67701552289398	481.2919379084242	200.0
69	6.96969696969697	181.0887015864245	475.6451936543022	200.0
70	7.070707070707071	182.45169350640967	470.1932259743615	200.0
71	7.171717171717171	183.76428484228248	464.9428606308702	200.0
72	7.2727272727272725	185.0249153127338	459.90033874906476	200.0
73	7.373737373737374	186.2321782910591	455.0712868357636	200.0
74	7.474747474747475	187.3848283005048	450.46068679798077	200.0
75	7.575757575757575	188.481788509615	446.07284596154005	200.0
76	7.6767676767676765	189.5221582275779	441.91136708968844	200.0
77	7.777777777777778	190.50522039957258	437.9791184017098	200.0
78	7.878787878787879	191.43044910211526	434.27820359153895	200.0
79	7.979797979797979	192.2975170384062	430.8099318463752	200.0
80	8.080808080808081	193.10630303367597	427.57478786529623	200.0
81	8.181818181818182	193.85689953053208	424.5724018778717	200.0
82	8.282828282828282	194.5496200843058	421.8015196627769	200.0
83	8.383838383838384	195.18500685839825	419.259972566407	200.0
84	8.484848484848484	195.76383811962742	416.9446475214904	200.0
85	8.585858585858587	196.2871357335744	414.8514570657025	200.0
86	8.686868686868687	196.75617265993014	412.9753093602795	200.0
87	8.787878787878787	197.17248044784193	411.3100782086323	200.0
88	8.88888888888889	197.53785673125998	409.84857307496014	200.0
89	8.98989898989899	197.85437272428393	408.5825091028643	200.0
90	9.09090909090909	198.1243807165095	407.50247713396203	200.0
91	9.191919191919192	198.35052156837503	406.59791372650005	200.0
92	9.292929292929292	198.53573220650787	405.85707117396856	200.0
93	9.393939393939394	198.6832531190713	405.2669875237148	200.0
94	9.494949494949495	198.79663585111078	404.813456595557	200.0
95	9.595959595959595	198.87975049990052	404.48099800039796	200.0
96	9.696969696969697	198.9367932102903	404.25282715883884	200.0
97	9.797979797979798	198.97229367005176	404.11082531979304	200.0
98	9.8989898989899	198.99112260522506	404.0355095790999	200.0
99	10.0	198.99849927546543	404.0060028981384	200.0
